<?xml version="1.0" encoding="UTF-8"?>
<svg width="72px" height="28px" viewBox="0 0 72 28" version="1.1" xmlns="http://www.w3.org/2000/svg" xmlns:xlink="http://www.w3.org/1999/xlink">
    <title>MS New/Simple PLR placé</title>
    <g id="Page-1" stroke="none" stroke-width="1" fill="none" fill-rule="evenodd">
        <g id="Logos-Masse-séparée/New" transform="translate(-191.000000, -503.000000)">
            <g id="Simple-PLR-placé/New" transform="translate(191.000000, 503.000000)">
                <path d="M35.0306295,27.8673962 L35.3933046,25.7930943 L36.4999289,25.7930943 C37.1508843,25.7930943 37.7026465,25.6241824 38.1552155,25.2863585 C38.6077845,24.9485346 38.8805659,24.5175723 38.9735595,23.9934717 L38.9735595,23.9934717 L39.1595468,22.9231698 C39.1843451,22.7779371 39.1967442,22.6390189 39.1967442,22.5064151 C39.1967442,22.1149182 39.0882516,21.7928805 38.8712665,21.5403019 C38.5736869,21.2119497 38.074621,21.0477736 37.374069,21.0477736 L37.374069,21.0477736 L34.5377632,21.0477736 L33.3567441,27.8673962 L35.0306295,27.8673962 Z M36.4720308,24.3155094 L35.6443874,24.3155094 L35.9512664,22.5253585 L36.7882091,22.5253585 C37.0361921,22.5253585 37.2066805,22.5821887 37.2996741,22.6958491 C37.3926677,22.8095094 37.4391646,22.9136981 37.4391646,23.0084151 C37.4391646,23.1031321 37.432965,23.1789057 37.4205658,23.2357358 L37.4205658,23.2357358 L37.3554703,23.6240755 C37.2748758,24.0850314 36.980396,24.3155094 36.4720308,24.3155094 L36.4720308,24.3155094 Z M43.5302475,27.8673962 L43.7906297,26.3898113 L41.2240054,26.3898113 L42.1446424,21.0477736 L40.470757,21.0477736 L39.2897379,27.8673962 L43.5302475,27.8673962 Z M45.6319036,27.8673962 L46.0875724,26.3803396 L47.6405661,26.3803396 L47.5847699,27.8673962 L49.351649,27.8673962 L49.3144515,21.0477736 L46.2456616,21.0477736 L43.8557252,27.8673962 L45.6319036,27.8673962 Z M47.6870629,25.1111321 L46.4688463,25.1111321 L47.203496,22.7053208 L47.7893559,22.7053208 L47.6870629,25.1111321 Z M52.5878274,28 C54.3051098,28 55.2877425,27.2643648 55.5357256,25.7930943 L55.5357256,25.7930943 L55.5822224,25.5184151 L53.908337,25.5184151 C53.790545,26.1940629 53.4371692,26.5318868 52.8482096,26.5318868 C52.3584431,26.5318868 52.1135599,26.3235094 52.1135599,25.9067547 C52.1135599,25.7488931 52.1290588,25.5878742 52.1600567,25.4236981 L52.1600567,25.4236981 L52.4855344,23.5104151 C52.6033263,22.803195 52.9753009,22.4495849 53.601458,22.4495849 C53.8308423,22.4495849 54.0044304,22.5174654 54.1222223,22.6532264 C54.2400143,22.7889874 54.2989102,22.9736855 54.2989102,23.2073208 C54.2989102,23.6493333 54.1966172,23.9903145 53.9920312,24.2302642 L53.9920312,24.2302642 L55.6380186,24.2302642 L55.7403116,24.0408302 C55.8085069,23.9208553 55.8782521,23.7361572 55.9495472,23.4867358 C56.0208423,23.2373145 56.0564899,22.9863145 56.0564899,22.7337358 C56.0564899,22.1906918 55.8705026,21.7628868 55.4985281,21.4503208 C55.1265536,21.1377547 54.5809909,20.9814717 53.8618402,20.9814717 C52.125959,20.9814717 51.118528,21.7802516 50.8395471,23.3778113 L50.8395471,23.3778113 L50.4582732,25.5563019 C50.4148762,25.802566 50.3931776,26.033044 50.3931776,26.2477358 C50.3931776,26.7465786 50.5109696,27.1349182 50.7465535,27.4127547 C51.0875301,27.8042516 51.7012881,28 52.5878274,28 Z M60.5759805,20.2237358 L62.3986557,17.96 L60.7247703,17.96 L59.1996747,20.2237358 L60.5759805,20.2237358 Z M60.9200569,27.8673962 L61.1804391,26.3898113 L58.1860441,26.3898113 L58.3720314,25.2816226 L60.845662,25.2816226 L61.1060442,23.8040377 L58.6324135,23.8040377 L58.8462989,22.5253585 L61.8406939,22.5253585 L62.1010761,21.0477736 L57.4327957,21.0477736 L56.2517765,27.8673962 L60.9200569,27.8673962 Z" id="PLACÉ" fill="#31BFCD" fill-rule="nonzero"></path>
                <g id="Group">
                    <polygon id="Rectangle" fill="#31BFCD" points="0 0 72 0 72 17.34 0 17.34"></polygon>
                    <path d="M11.463947,12.18 C12.4660156,12.18 13.2080537,11.981363 13.6900613,11.5840891 C14.172069,11.1868151 14.4130728,10.5779847 14.4130728,9.75759784 C14.4130728,9.35063428 14.3052553,9.01957265 14.0896203,8.76441296 C13.8739853,8.50925326 13.6107838,8.32676563 13.3000157,8.21695007 C12.9892476,8.1071345 12.680065,8.01508322 12.372468,7.94079622 C12.0648711,7.86650922 11.8032551,7.76476833 11.5876201,7.63557355 C11.371985,7.50637877 11.2641675,7.33196581 11.2641675,7.11233468 C11.2641675,6.67307242 11.6034756,6.4534413 12.2820916,6.4534413 C12.8211791,6.4534413 13.0907229,6.66338282 13.0907229,7.08326586 C13.0907229,7.30935673 13.0209586,7.49668916 12.8814301,7.64526316 L12.8814301,7.64526316 L14.5652858,7.64526316 L14.6413922,7.52898785 C14.6921299,7.45793072 14.741282,7.33681062 14.7888485,7.16562753 C14.8364151,6.99444444 14.8601984,6.81518668 14.8601984,6.62785425 C14.8601984,6.11753486 14.6683466,5.71864597 14.2846432,5.43118758 C13.9009397,5.14372919 13.3348978,5 12.5865175,5 C10.537985,5 9.51371869,5.81069726 9.51371869,7.43209177 C9.51371869,7.81321637 9.62153619,8.13135852 9.83717119,8.38651822 C10.0528062,8.64167791 10.3144222,8.82901035 10.6220192,8.94851552 C10.9296162,9.06802069 11.2372132,9.17299145 11.5448102,9.2634278 C11.8524072,9.35386415 12.1140232,9.46690958 12.3296582,9.6025641 C12.5452932,9.73821862 12.6531107,9.91263158 12.6531107,10.125803 C12.6531107,10.5263068 12.3375859,10.7265587 11.7065364,10.7265587 C11.0754869,10.7265587 10.7599622,10.5036977 10.7599622,10.0579757 C10.7599622,10.0062978 10.7663044,9.94816014 10.7789888,9.88356275 L10.7789888,9.88356275 L10.7980154,9.76728745 L9.08561978,9.76728745 L9.05707985,9.92232119 C9.01902662,10.1354926 9,10.3325146 9,10.5133873 C9,10.991408 9.13635743,11.3660729 9.40907229,11.6373819 C9.77692024,11.9991273 10.4618785,12.18 11.463947,12.18 Z M16.8294533,12.0443455 L18.0281303,5.06782726 L16.3157346,5.06782726 L15.1075444,12.0443455 L16.8294533,12.0443455 Z M19.8832255,12.0443455 L20.5681838,8.11036437 L21.2150888,10.4552497 L22.4613323,10.4552497 L23.9263819,8.11036437 L23.2414236,12.0443455 L24.9633325,12.0443455 L26.1715228,5.06782726 L24.3735074,5.06782726 L22.1854463,8.41074224 L21.1675222,5.06782726 L19.3790201,5.06782726 L18.1708299,12.0443455 L19.8832255,12.0443455 Z M28.026618,12.0443455 L28.3976371,9.92232119 L29.5297209,9.92232119 C30.1956525,9.92232119 30.7601088,9.74952317 31.2230899,9.40392713 C31.6860709,9.05833108 31.965128,8.61745389 32.0602611,8.08129555 L32.0602611,8.08129555 L32.2505272,6.98636977 C32.2758961,6.83779577 32.2885805,6.69568151 32.2885805,6.56002699 C32.2885805,6.15952317 32.1775919,5.83007647 31.9556147,5.57168691 C31.6511888,5.23578048 31.1406412,5.06782726 30.4239719,5.06782726 L30.4239719,5.06782726 L27.5224127,5.06782726 L26.3142224,12.0443455 L28.026618,12.0443455 Z M29.5011809,8.41074224 L28.6544964,8.41074224 L28.9684356,6.57940621 L29.8246334,6.57940621 C30.0783217,6.57940621 30.2527323,6.63754386 30.3478654,6.75381916 C30.4429985,6.87009447 30.4905651,6.97668016 30.4905651,7.07357625 C30.4905651,7.17047233 30.4842229,7.2479892 30.4715385,7.30612686 L30.4715385,7.30612686 L30.4049453,7.70340081 C30.3224966,8.17496176 30.0212418,8.41074224 29.5011809,8.41074224 L29.5011809,8.41074224 Z M36.7217825,12.0443455 L36.9881551,10.5327665 L34.3624818,10.5327665 L35.3042994,5.06782726 L33.5919038,5.06782726 L32.3837136,12.0443455 L36.7217825,12.0443455 Z M42.2585283,12.0443455 L42.524901,10.5327665 L39.4616155,10.5327665 L39.6518817,9.39908232 L42.1824219,9.39908232 L42.4487945,7.88750337 L39.9182543,7.88750337 L40.1370604,6.57940621 L43.2003459,6.57940621 L43.4667186,5.06782726 L38.6910374,5.06782726 L37.4828472,12.0443455 L42.2585283,12.0443455 Z M47.3481487,12.0443455 L47.7191677,9.92232119 L48.8512515,9.92232119 C49.5171831,9.92232119 50.0816394,9.74952317 50.5446205,9.40392713 C51.0076015,9.05833108 51.2866586,8.61745389 51.3817917,8.08129555 L51.3817917,8.08129555 L51.5720579,6.98636977 C51.5974267,6.83779577 51.6101111,6.69568151 51.6101111,6.56002699 C51.6101111,6.15952317 51.4991225,5.83007647 51.2771453,5.57168691 C50.9727194,5.23578048 50.4621718,5.06782726 49.7455025,5.06782726 L49.7455025,5.06782726 L46.8439433,5.06782726 L45.635753,12.0443455 L47.3481487,12.0443455 Z M48.8227116,8.41074224 L47.976027,8.41074224 L48.2899662,6.57940621 L49.1461641,6.57940621 C49.3998523,6.57940621 49.574263,6.63754386 49.6693961,6.75381916 C49.7645291,6.87009447 49.8120957,6.97668016 49.8120957,7.07357625 C49.8120957,7.17047233 49.8057535,7.2479892 49.7930691,7.30612686 L49.7930691,7.30612686 L49.7264759,7.70340081 C49.6440272,8.17496176 49.3427724,8.41074224 48.8227116,8.41074224 L48.8227116,8.41074224 Z M56.0433131,12.0443455 L56.3096858,10.5327665 L53.6840125,10.5327665 L54.6258301,5.06782726 L52.9134344,5.06782726 L51.7052442,12.0443455 L56.0433131,12.0443455 Z M58.6309332,12.0443455 L59.0209788,9.43784076 L59.610804,9.43784076 L60.4099219,12.0443455 L62.3316104,12.0443455 L61.4658992,9.21497976 C61.6942187,9.10516419 61.9019259,8.92106163 62.089021,8.66267206 C62.2761161,8.4042825 62.4077168,8.0651462 62.4838233,7.64526316 L62.4838233,7.64526316 L62.6170096,6.88947368 C62.6423785,6.74735942 62.6550629,6.6117049 62.6550629,6.48251012 C62.6550629,6.10784525 62.5409032,5.79777778 62.3125837,5.55230769 C62.0081579,5.22932074 61.4944392,5.06782726 60.7714277,5.06782726 L60.7714277,5.06782726 L58.0125681,5.06782726 L56.8043778,12.0443455 L58.6309332,12.0443455 Z M59.8771766,8.26539811 L59.211245,8.26539811 L59.458591,6.57940621 L60.1720892,6.57940621 C60.6033592,6.57940621 60.8189942,6.84102564 60.8189942,7.36426451 C60.8189942,7.63557355 60.7460589,7.85358974 60.6001881,8.01831309 C60.4543174,8.18303644 60.2133136,8.26539811 59.8771766,8.26539811 L59.8771766,8.26539811 Z" id="SIMPLEPLR" fill="#FFFFFF" fill-rule="nonzero"></path>
                </g>
            </g>
        </g>
    </g>
</svg>