<svg xmlns="http://www.w3.org/2000/svg" xmlns:xlink="http://www.w3.org/1999/xlink" viewBox="0 0 240 240" xmlns:v="https://vecta.io/nano"><defs><path id="A" d="M34.8 68.1c-7.7 9.5-12.2 21.9-12.2 33.8 0 18.5 2.4 30.4 6.4 46.5.5 2.2 2.8 3.5 5 3l14.3-3.4c2.2-.5 3.6-2.7 3-4.8-3.8-15.3-5.8-25-5.8-41.2 0-13.1 9.8-28.2 22.5-28.2S90.5 89 90.5 102c0 16.1-2 25.9-5.8 41.2-.5 2.1.8 4.3 3 4.8l14.3 3.4a4.2 4.2 0 0 0 5-3c4-16.2 6.4-28 6.4-46.5 0-12-4.4-24.3-12.2-33.8-8.8-10.8-20.7-16.8-33.4-16.8-12.4-.1-24.2 5.9-33 16.8z"/></defs><clipPath id="B"><use xlink:href="#A"/></clipPath><g clip-path="url(#B)"><defs><path id="C" d="M-1097.7-759.4H9276.4V5598H-1097.7z"/></defs><clipPath id="D"><use xlink:href="#C"/></clipPath><path d="M-22.9 5.7h182.2V197H-22.9z" clip-path="url(#D)"/></g><defs><path id="E" d="M144.1 95.4c-7.7 9.5-12.2 21.9-12.2 33.8 0 18.5 2.4 30.4 6.4 46.5.5 2.2 2.8 3.5 5 3l14.3-3.4c2.2-.5 3.6-2.7 3-4.8-3.8-15.3-5.8-25-5.8-41.2 0-13.1 9.8-28.2 22.5-28.2s22.5 15.2 22.5 28.2c0 16.1-2 25.9-5.8 41.2-.5 2.1.8 4.3 3 4.8l14.3 3.4a4.2 4.2 0 0 0 5-3c4-16.2 6.4-28 6.4-46.5 0-12-4.4-24.3-12.2-33.8-8.8-10.8-20.7-16.8-33.4-16.8-12.4 0-24.2 5.9-33 16.8z"/></defs><clipPath id="F"><use xlink:href="#E"/></clipPath><g clip-path="url(#F)"><defs><path id="G" d="M-1097.7-759.4H9276.4V5598H-1097.7z"/></defs><clipPath id="H"><use xlink:href="#G"/></clipPath><path d="M86.4 33h182.2v191.3H86.4z" clip-path="url(#H)"/></g><path d="M104.6 132.1c-1.2 0-2.4-.3-3.6-.8L28.1 94.9c-4-2-5.6-6.8-3.6-10.7 2-4 6.8-5.6 10.7-3.6l72.9 36.4c4 2 5.6 6.8 3.6 10.7-1.3 2.8-4.2 4.4-7.1 4.4zm109.3 27.3c-1.2 0-2.4-.3-3.6-.8l-72.9-36.4c-4-2-5.6-6.8-3.6-10.7 2-4 6.8-5.6 10.7-3.6l72.9 36.4c4 2 5.6 6.8 3.6 10.7-1.3 2.8-4.2 4.4-7.1 4.4z" fill="#d0021b"/></svg>