<svg width="100" height="64" viewBox="0 0 100 64" fill="none" xmlns="http://www.w3.org/2000/svg">
<g clip-path="url(#clip0_97_5671)">
<path d="M87.1426 0C94.2433 0 99.9999 5.73065 100 12.7998V51.2002C99.9999 58.2694 94.2433 64 87.1426 64H12.8574C5.75668 64 0.000118039 58.2694 0 51.2002V12.7998C0.000117 5.73065 5.75668 0 12.8574 0H87.1426ZM46.1582 20.2129L43.9473 35.499L43.9463 35.5088C43.3065 40.2675 43.5157 43.9383 44.8428 46.2725C46.2404 48.7304 48.8725 49.8193 52.3311 49.8193C55.8795 49.8193 58.6924 48.7317 60.5635 46.4043L60.5625 46.4033C62.3705 44.1931 63.5312 40.5855 64.1729 35.7734L66.3594 20.2129H58.6719L56.5879 35.499C56.3513 36.9575 56.1347 38.2167 55.9385 39.2764L55.9346 39.2998C55.69 40.8234 55.2699 41.8314 54.7646 42.4424C54.2948 43.0105 53.7114 43.2871 52.9268 43.2871C52.2925 43.2871 51.9355 43.1477 51.7334 42.9922C51.5859 42.8471 51.3509 42.4461 51.1689 41.5479C51.1125 41.1754 51.1088 40.5269 51.1953 39.5459C51.2816 38.5685 51.4511 37.3247 51.707 35.8086L51.7109 35.7812L53.8984 20.2129H46.1582ZM77.7178 20.0342L77.7051 20.0352L69.7627 20.2354L65.668 49.2822H73.2344L74.4775 40.3965C74.5084 40.3968 74.5394 40.3984 74.5703 40.3984H75.5244C78.5704 40.3984 81.1142 39.7101 83.0498 38.2246L83.0576 38.2178C85.3347 36.4318 86.6597 33.7688 87.125 30.3721C87.6084 27.3097 87.2504 24.7434 85.793 22.8906L85.6484 22.7139C84.0818 20.8153 81.3072 20.0342 77.7305 20.0342H77.7178ZM51.4209 48.7871C51.3385 48.7819 51.2567 48.7792 51.1758 48.7725C51.2567 48.7792 51.3385 48.7819 51.4209 48.7871ZM50.9922 48.7529C50.874 48.7413 50.7574 48.7297 50.6426 48.7148C50.7574 48.7297 50.874 48.7413 50.9922 48.7529ZM50.4424 48.6855C50.3362 48.6698 50.2312 48.6544 50.1279 48.6357C50.2312 48.6544 50.3362 48.6698 50.4424 48.6855ZM29.0938 11.415C27.8717 11.4151 26.267 11.5735 24.3008 11.876C22.3177 12.1811 20.7351 12.6287 19.6641 13.2832L19.1279 13.6113L19.8613 20.8447L21.1572 20.1963C21.4199 20.065 22.0204 19.8852 23.0684 19.6855L23.1064 19.6777L23.1436 19.668C23.6508 19.5296 24.2124 19.4123 24.8291 19.3174L24.8584 19.3125L24.8867 19.3066C25.4902 19.1773 26.3116 19.1045 27.3721 19.1045C28.3183 19.1045 29.0617 19.3666 29.6611 19.8535C30.1062 20.2152 30.3648 20.7867 30.2021 21.8447C30.0274 22.9803 29.6208 23.9002 29.0068 24.6406C28.7005 24.9896 28.4106 25.2545 28.1396 25.4482C27.9579 25.5699 27.7848 25.6933 27.6377 25.8105C26.4968 26.1405 25.2626 26.3115 23.9287 26.3115H21.2686L20.2256 33.4023H25.875C26.9238 33.4023 27.7385 33.6913 28.3838 34.2227L28.3945 34.2314L28.4053 34.2393C28.8761 34.6055 29.204 35.3319 28.9326 36.8701L28.9307 36.8838L28.9287 36.8984C28.7086 38.3946 28.1405 39.3649 27.3213 39.9668C26.4122 40.5832 25.3211 40.9092 24.0039 40.9092C22.6832 40.9092 21.2433 40.6592 19.6787 40.1377C19.1277 39.954 18.6534 39.7725 18.252 39.5967C17.8939 39.3749 17.5476 39.177 17.2832 39.0889L16.4658 38.8164L12.9629 45.7197L14.1797 46.0234C14.2758 46.0475 14.5624 46.1553 15.1094 46.4033C17.9297 47.9107 20.8733 48.6738 23.9287 48.6738C27.8134 48.6738 31.0563 47.8184 33.5693 46.0156L33.5742 46.0127C36.3711 43.9836 37.9845 41.0048 38.4668 37.1963C38.8132 34.9575 38.5933 32.9862 37.6719 31.3809C37.0481 30.2944 36.1392 29.44 34.9902 28.7979C37.6678 26.884 39.2812 24.3102 39.7412 21.0908C40.1742 18.0597 39.4809 15.5548 37.4531 13.8252C35.4995 12.1591 32.6513 11.415 29.0938 11.415ZM49.9023 48.5898C49.8201 48.5729 49.7385 48.5569 49.6582 48.5381C49.7385 48.5569 49.8201 48.5729 49.9023 48.5898ZM49.4014 48.4717C49.3307 48.4528 49.2605 48.4345 49.1914 48.4141C49.2605 48.4345 49.3307 48.4528 49.4014 48.4717ZM25.2656 47.6357C25.1255 47.6436 24.9842 47.6489 24.8418 47.6543C24.9842 47.649 25.1255 47.6436 25.2656 47.6357ZM25.9082 47.5898C25.7595 47.6027 25.6094 47.6132 25.458 47.623C25.6094 47.6132 25.7595 47.6027 25.9082 47.5898ZM22.6191 47.6211C22.5315 47.6144 22.4439 47.6087 22.3564 47.6006C22.4439 47.6087 22.5315 47.6144 22.6191 47.6211ZM22.1221 47.5762C22.0194 47.5653 21.9168 47.5548 21.8145 47.542C21.9168 47.5548 22.0194 47.5653 22.1221 47.5762ZM26.5186 47.5273C26.3978 47.5415 26.2759 47.5533 26.1533 47.5654C26.2759 47.5533 26.3978 47.5415 26.5186 47.5273ZM21.6221 47.5156C21.5194 47.5016 21.4168 47.4876 21.3145 47.4717C21.4168 47.4876 21.5194 47.5016 21.6221 47.5156ZM27.1338 47.4453C27.0214 47.4623 26.908 47.4771 26.7939 47.4922C26.908 47.4771 27.0214 47.4623 27.1338 47.4453ZM21.0742 47.4316C20.9781 47.4153 20.8821 47.3979 20.7861 47.3799C20.8821 47.3979 20.9781 47.4153 21.0742 47.4316ZM27.7168 47.3467C27.6172 47.3652 27.517 47.3825 27.416 47.3994C27.517 47.3825 27.6172 47.3652 27.7168 47.3467ZM20.5986 47.3438C20.4836 47.3208 20.3686 47.2969 20.2539 47.2715C20.3686 47.2969 20.4836 47.3208 20.5986 47.3438ZM47.0176 47.3145C46.9986 47.2992 46.9797 47.284 46.9609 47.2686C46.9797 47.284 46.9986 47.2992 47.0176 47.3145ZM28.2803 47.2314C28.1914 47.2512 28.1018 47.2697 28.0117 47.2881C28.1018 47.2697 28.1914 47.2512 28.2803 47.2314ZM20.0723 47.2295C19.9689 47.2054 19.8658 47.1803 19.7627 47.1543C19.8658 47.1803 19.9689 47.2054 20.0723 47.2295ZM46.9023 47.2188C46.8682 47.1897 46.8341 47.1607 46.8008 47.1309C46.8341 47.1607 46.8682 47.1897 46.9023 47.2188ZM28.876 47.0869C28.7743 47.1137 28.6717 47.1391 28.5684 47.1641C28.6717 47.1391 28.7743 47.1137 28.876 47.0869ZM19.5576 47.1016C19.4589 47.0753 19.3602 47.0485 19.2617 47.0205C19.3602 47.0485 19.4589 47.0753 19.5576 47.1016ZM46.7246 47.0615C46.6983 47.0371 46.6723 47.0123 46.6465 46.9873C46.6723 47.0123 46.6983 47.0371 46.7246 47.0615ZM29.4141 46.9336C29.313 46.9644 29.2112 46.9946 29.1084 47.0234C29.2112 46.9946 29.313 46.9644 29.4141 46.9336ZM18.998 46.9434C18.9328 46.9237 18.8678 46.9033 18.8027 46.8828C18.8678 46.9033 18.9328 46.9237 18.998 46.9434ZM46.5859 46.9277C46.5636 46.9054 46.5414 46.8831 46.5195 46.8604C46.5414 46.8831 46.5636 46.9054 46.5859 46.9277ZM29.9258 46.7666C29.8378 46.7972 29.7495 46.8274 29.6602 46.8564C29.7495 46.8274 29.8378 46.7972 29.9258 46.7666ZM18.5088 46.7881C18.4188 46.758 18.329 46.7269 18.2393 46.6953C18.329 46.7269 18.4188 46.758 18.5088 46.7881ZM46.4258 46.7607C46.4119 46.7456 46.3984 46.7301 46.3848 46.7148C46.3984 46.7301 46.4119 46.7456 46.4258 46.7607ZM30.459 46.5684C30.3668 46.6049 30.2745 46.642 30.1807 46.6768C30.2745 46.642 30.3668 46.6049 30.459 46.5684ZM18.041 46.625C17.9173 46.5799 17.7942 46.5324 17.6709 46.4844C17.7942 46.5324 17.9173 46.5799 18.041 46.625ZM46.3008 46.6191C46.2838 46.5992 46.2676 46.5788 46.251 46.5586C46.2676 46.5788 46.2838 46.5992 46.3008 46.6191ZM30.9395 46.3672C30.8561 46.4043 30.7723 46.4411 30.6875 46.4766C30.7723 46.4411 30.8561 46.4043 30.9395 46.3672ZM46.1768 46.4678C46.1664 46.4547 46.1557 46.4419 46.1455 46.4287C46.1557 46.4419 46.1664 46.4547 46.1768 46.4678ZM17.5527 46.4385C17.418 46.3849 17.2836 46.3295 17.1494 46.2725C17.2836 46.3295 17.418 46.3849 17.5527 46.4385ZM31.4424 46.1299C31.3561 46.1731 31.2695 46.2164 31.1816 46.2578C31.2696 46.2164 31.3561 46.1731 31.4424 46.1299ZM17.043 46.2275C16.9309 46.1791 16.8197 46.128 16.708 46.0771C16.8197 46.128 16.9309 46.1791 17.043 46.2275ZM45.9355 46.1377C45.9253 46.1225 45.9154 46.1071 45.9053 46.0918C45.9154 46.1071 45.9253 46.1225 45.9355 46.1377ZM31.8789 45.8984C31.8045 45.9397 31.7309 45.9827 31.6553 46.0225C31.7309 45.9827 31.8045 45.9397 31.8789 45.8984ZM15.5449 45.5029C15.8705 45.6778 16.1979 45.8414 16.5264 45.9951C16.1979 45.8414 15.8705 45.6778 15.5449 45.5029ZM45.2012 44.6221C45.1926 44.5968 45.1842 44.5714 45.1758 44.5459C45.1842 44.5714 45.1926 44.5968 45.2012 44.6221ZM53.1982 44.2773C53.1093 44.2832 53.0187 44.2881 52.9268 44.2881C53.0187 44.2881 53.1093 44.2832 53.1982 44.2773ZM45.0967 44.2832C45.0762 44.2136 45.0544 44.1437 45.0352 44.0723C45.0544 44.1437 45.0762 44.2136 45.0967 44.2832ZM44.9707 43.8154C44.9516 43.7361 44.9326 43.6558 44.915 43.5742C44.9326 43.6558 44.9516 43.7361 44.9707 43.8154ZM44.8535 43.2627C44.8387 43.1835 44.824 43.1036 44.8105 43.0225C44.824 43.1036 44.8387 43.1835 44.8535 43.2627ZM44.7627 42.708C44.7528 42.6377 44.7424 42.5668 44.7334 42.4951C44.7424 42.5668 44.7527 42.6377 44.7627 42.708ZM44.6953 42.1602C44.6856 42.0662 44.6772 41.9712 44.6689 41.875C44.6772 41.9712 44.6856 42.0662 44.6953 42.1602ZM24.3701 41.9004C24.2494 41.9055 24.1274 41.9092 24.0039 41.9092C24.1274 41.9092 24.2494 41.9055 24.3701 41.9004ZM44.6436 41.5479C44.6363 41.4385 44.6304 41.3279 44.625 41.2158C44.6304 41.3279 44.6363 41.4385 44.6436 41.5479ZM44.6123 40.9482C44.6076 40.8128 44.6057 40.6754 44.6035 40.5361C44.6057 40.6754 44.6076 40.8128 44.6123 40.9482ZM44.6006 40.2832C44.6 40.1555 44.601 40.0263 44.6025 39.8955C44.601 40.0263 44.6 40.1555 44.6006 40.2832ZM44.6074 39.5576C44.6097 39.4643 44.6139 39.3703 44.6172 39.2754C44.6139 39.3703 44.6097 39.4643 44.6074 39.5576ZM73.6162 39.3389C73.9342 39.3786 74.2523 39.3984 74.5703 39.3984L74.0928 39.3838C73.934 39.3739 73.775 39.3587 73.6162 39.3389ZM76.5527 39.3701L76.0615 39.3906C76.2337 39.3856 76.4036 39.378 76.5713 39.3682C76.5651 39.3685 76.5589 39.3698 76.5527 39.3701ZM77.0713 39.3301C76.952 39.3409 76.8316 39.3502 76.71 39.3584C76.8316 39.3502 76.952 39.3409 77.0713 39.3301ZM77.5615 39.2773C77.4391 39.2925 77.3154 39.3061 77.1904 39.3184C77.3155 39.3061 77.4391 39.2925 77.5615 39.2773ZM78.0088 39.2148C77.9066 39.2309 77.8033 39.2448 77.6992 39.2588C77.8033 39.2448 77.9066 39.2309 78.0088 39.2148ZM78.4736 39.1328C78.3897 39.1492 78.3051 39.1648 78.2197 39.1797C78.3051 39.1648 78.3897 39.1492 78.4736 39.1328ZM78.9033 39.041C78.822 39.06 78.7399 39.0773 78.6572 39.0947C78.7399 39.0773 78.822 39.06 78.9033 39.041ZM79.3213 38.9355C79.257 38.9531 79.1922 38.9698 79.127 38.9863C79.1922 38.9698 79.257 38.9531 79.3213 38.9355ZM79.7627 38.8037C79.6858 38.8283 79.6085 38.8529 79.5303 38.876C79.6085 38.8529 79.6858 38.8283 79.7627 38.8037ZM80.1582 38.668C80.0868 38.6942 80.0151 38.7203 79.9424 38.7451C80.0151 38.7203 80.0868 38.6942 80.1582 38.668ZM80.542 38.5176C80.4745 38.5457 80.4066 38.5738 80.3379 38.6006C80.4066 38.5738 80.4745 38.5457 80.542 38.5176ZM80.9199 38.3496C80.8556 38.3799 80.7911 38.4105 80.7256 38.4395C80.7911 38.4105 80.8556 38.3799 80.9199 38.3496ZM81.3369 38.1396C81.2567 38.1828 81.176 38.2257 81.0938 38.2666C81.176 38.2257 81.2567 38.1828 81.3369 38.1396ZM81.7158 37.9248C81.6223 37.9816 81.5272 38.0364 81.4307 38.0898C81.5272 38.0364 81.6223 37.9816 81.7158 37.9248ZM82.0947 37.6807C81.9953 37.7488 81.8941 37.8148 81.791 37.8789C81.8941 37.8148 81.9953 37.7488 82.0947 37.6807ZM82.4404 37.4307C82.3351 37.5115 82.227 37.5892 82.1172 37.665C82.227 37.5892 82.3351 37.5115 82.4404 37.4307ZM77.3125 26.3271C78.3371 26.3271 78.8429 26.6449 79.1221 27.085C79.4487 27.6002 79.6274 28.5278 79.4248 30.0605C79.2747 30.9579 79.075 31.6647 78.8408 32.2002L78.8398 32.2051C78.5243 32.9358 78.1163 33.4229 77.6436 33.7334C77.1707 34.0439 76.5607 34.2246 75.7627 34.2246H75.3086L76.457 26.3271H77.3125ZM33.1455 28.7891C33.0441 28.8464 32.9411 28.9031 32.8369 28.959C32.9444 28.9013 33.0506 28.8425 33.1553 28.7832L33.1455 28.7891ZM33.7637 28.4189C33.7214 28.4456 33.6785 28.4716 33.6357 28.498C33.6785 28.4716 33.7214 28.4456 33.7637 28.4189ZM34.0557 28.2295C34.0022 28.2651 33.9479 28.2998 33.8936 28.335C33.9479 28.2998 34.0022 28.2651 34.0557 28.2295ZM34.332 28.04C34.2607 28.0902 34.1882 28.1393 34.1152 28.1885C34.1882 28.1393 34.2607 28.0902 34.332 28.04ZM34.5918 27.8535C34.5477 27.8862 34.5028 27.9179 34.458 27.9502C34.5028 27.9179 34.5477 27.8862 34.5918 27.8535ZM34.8555 27.6523C34.837 27.6668 34.8184 27.6809 34.7998 27.6953C34.8184 27.6809 34.837 27.6668 34.8555 27.6523ZM35.1182 27.4395C35.0708 27.4788 35.0229 27.5178 34.9746 27.5566C35.0229 27.5178 35.0708 27.4788 35.1182 27.4395ZM35.3535 27.2393C35.3256 27.2637 35.2978 27.2883 35.2695 27.3125C35.2978 27.2883 35.3256 27.2637 35.3535 27.2393ZM35.6182 27C35.5728 27.0423 35.5268 27.0842 35.4805 27.126C35.5268 27.0842 35.5728 27.0423 35.6182 27ZM35.8584 26.7686C35.7969 26.8294 35.7342 26.8894 35.6709 26.9492C35.7342 26.8894 35.7969 26.8294 35.8584 26.7686ZM36.0742 26.5498C36.0267 26.5997 35.9775 26.6481 35.9287 26.6973C35.9775 26.6481 36.0267 26.5997 36.0742 26.5498ZM36.2803 26.3271C36.2309 26.382 36.1806 26.4362 36.1299 26.4902C36.1806 26.4362 36.2309 26.382 36.2803 26.3271ZM36.4678 26.1113C36.4312 26.1543 36.3949 26.1977 36.3574 26.2402C36.3948 26.1977 36.4312 26.1543 36.4678 26.1113ZM36.6709 25.8652C36.6349 25.9104 36.5984 25.9553 36.5615 26C36.5984 25.9553 36.6349 25.9104 36.6709 25.8652ZM36.8623 25.6172C36.8238 25.6687 36.7847 25.7197 36.7451 25.7705C36.7847 25.7197 36.8238 25.6687 36.8623 25.6172ZM37.0361 25.3779C37.0003 25.4291 36.9637 25.4797 36.9268 25.5303C36.9637 25.4797 37.0003 25.4291 37.0361 25.3779ZM37.2236 25.1025C37.1894 25.155 37.1544 25.2069 37.1191 25.2588C37.1544 25.2069 37.1894 25.155 37.2236 25.1025ZM37.375 24.8604C37.3421 24.9142 37.3094 24.9682 37.2754 25.0215C37.3094 24.9682 37.3421 24.9142 37.375 24.8604ZM37.5205 24.6133C37.4961 24.6561 37.4714 24.6988 37.4463 24.7412C37.4714 24.6988 37.4961 24.6561 37.5205 24.6133ZM37.6826 24.3184C37.6503 24.3799 37.6176 24.4412 37.584 24.502C37.6176 24.4412 37.6503 24.3799 37.6826 24.3184ZM37.8359 24.0137C37.8018 24.0847 37.7673 24.1555 37.7314 24.2256C37.7673 24.1555 37.8018 24.0847 37.8359 24.0137ZM37.9746 23.7119C37.9379 23.7955 37.9003 23.8786 37.8613 23.9609C37.9003 23.8786 37.9379 23.7955 37.9746 23.7119ZM38.0771 23.4688C38.0486 23.5388 38.0194 23.6085 37.9893 23.6777C38.0194 23.6085 38.0486 23.5388 38.0771 23.4688ZM38.208 23.1328C38.1771 23.2174 38.1454 23.3014 38.1123 23.3848C38.1454 23.3014 38.1771 23.2174 38.208 23.1328ZM38.3066 22.8496C38.2769 22.9391 38.246 23.028 38.2139 23.1162C38.246 23.028 38.2769 22.9391 38.3066 22.8496ZM38.6289 21.6455C38.5461 22.047 38.4437 22.4371 38.3193 22.8154C38.4437 22.4372 38.5461 22.047 38.6289 21.6455ZM38.8125 20.4404C38.7959 20.6074 38.7756 20.7771 38.751 20.9492C38.7756 20.7771 38.7959 20.6074 38.8125 20.4404ZM38.8506 19.9443C38.8432 20.0822 38.8315 20.2217 38.8184 20.3633C38.8315 20.2217 38.8432 20.0822 38.8506 19.9443ZM38.8633 19.498C38.8626 19.5916 38.859 19.6859 38.8555 19.7812C38.859 19.6859 38.8626 19.5916 38.8633 19.498ZM38.8535 19.0176C38.8578 19.1098 38.86 19.2028 38.8613 19.2969C38.86 19.2028 38.8578 19.1098 38.8535 19.0176ZM29.916 18.8057C29.9444 18.824 29.973 18.8422 30.001 18.8613C29.973 18.8422 29.9444 18.824 29.916 18.8057ZM38.8232 18.5908C38.8317 18.6762 38.838 18.7625 38.8438 18.8496C38.838 18.7625 38.8317 18.6762 38.8232 18.5908ZM38.7676 18.1611C38.7797 18.2375 38.79 18.3147 38.7998 18.3926C38.79 18.3147 38.7797 18.2375 38.7676 18.1611ZM28.7324 18.2783C28.8447 18.309 28.9547 18.3439 29.0625 18.3828C28.9547 18.3439 28.8447 18.309 28.7324 18.2783ZM27.5859 18.1084C27.8456 18.1178 28.0959 18.1446 28.3369 18.1885C28.2184 18.1669 28.0976 18.1499 27.9746 18.1367L27.5859 18.1084ZM38.6895 17.752C38.7054 17.8242 38.7196 17.8971 38.7334 17.9707C38.7196 17.8971 38.7054 17.8242 38.6895 17.752ZM38.583 17.3369C38.6075 17.4205 38.6301 17.5051 38.6514 17.5908C38.6301 17.5051 38.6075 17.4205 38.583 17.3369ZM38.4629 16.9697C38.4891 17.0419 38.5145 17.1146 38.5381 17.1885C38.5145 17.1146 38.4891 17.0419 38.4629 16.9697ZM38.3154 16.6035C38.3451 16.6706 38.3741 16.738 38.4014 16.8066C38.3741 16.738 38.3451 16.6706 38.3154 16.6035ZM38.1465 16.2549C38.1797 16.3179 38.2132 16.3808 38.2441 16.4453C38.2132 16.3808 38.1797 16.3179 38.1465 16.2549ZM37.9541 15.9199C37.9903 15.9783 38.0275 16.036 38.0615 16.0957C38.0275 16.036 37.9903 15.9783 37.9541 15.9199ZM37.707 15.5547C37.7584 15.6243 37.8095 15.6938 37.8574 15.7656C37.8095 15.6938 37.7584 15.6243 37.707 15.5547ZM37.4531 15.2344C37.5165 15.3082 37.5786 15.3824 37.6377 15.459C37.5786 15.3824 37.5165 15.3082 37.4531 15.2344ZM37.1104 14.8652C37.2049 14.9578 37.2959 15.053 37.3828 15.1504C37.2958 15.0529 37.205 14.9578 37.1104 14.8652ZM20.4619 13.9814C20.4848 13.9694 20.5078 13.9572 20.5312 13.9453C20.5078 13.9572 20.4848 13.9694 20.4619 13.9814ZM20.8105 13.8135C20.8373 13.8015 20.8642 13.7892 20.8916 13.7773C20.8642 13.7892 20.8373 13.8015 20.8105 13.8135ZM21.0527 13.7119C21.15 13.6727 21.2503 13.6333 21.3545 13.5957C21.2503 13.6333 21.15 13.6726 21.0527 13.7119ZM21.5156 13.54C21.6145 13.5063 21.7165 13.4737 21.8213 13.4414C21.7165 13.4737 21.6145 13.5063 21.5156 13.54ZM22.0244 13.3799C22.1213 13.3518 22.2207 13.3248 22.3223 13.2979C22.2207 13.3248 22.1213 13.3518 22.0244 13.3799ZM22.5674 13.2344C22.674 13.208 22.7831 13.1824 22.8945 13.1572C22.7831 13.1824 22.674 13.208 22.5674 13.2344Z" fill="white"/>
</g>
<defs>
<clipPath id="clip0_97_5671">
<rect width="100" height="64" rx="12.7812" fill="white"/>
</clipPath>
</defs>
</svg>
