<svg xmlns="http://www.w3.org/2000/svg" width="39" height="49" xmlns:v="https://vecta.io/nano"><path d="M29.2 44.874H21.76v-2.698c-.705.1-1.31.1-2.014.1s-1.31 0-2.014-.1v2.698H10.28c-1.108 0-1.913.9-1.913 1.9 0 1.1.906 1.9 1.913 1.9H29.2c1.108 0 1.913-.9 1.913-1.9s-.806-1.9-1.913-1.9z"/><ellipse cx="19.745" cy="21.79" rx="2.517" ry="2.498"/><path d="M7.057 13.796l9.566 5.596a2.33 2.33 0 0 1 .705-.7L11.7 9.2c-1.913 1.2-3.524 2.798-4.632 4.597zM11.7 34.48l5.64-9.493a2.35 2.35 0 0 1-.705-.7L7.06 29.783c1.108 1.9 2.72 3.498 4.632 4.697zm11.38 1.9l-2.82-10.592h-1L16.42 36.48c1.108.2 2.215.4 3.323.4 1.108-.1 2.215-.2 3.323-.5zM4.64 21.8c0 1.1.1 2.198.403 3.298L15.717 22.3c-.1-.5-.1-.4 0-1L4.942 18.492 4.64 21.8zM21.76 9.3c-.302.9-1.108 1.5-2.014 1.5s-1.712-.6-2.014-1.5l-.706-2.2c-.2 0-.403.1-.604.1l2.82 10.692h1.007L23.068 7.2c-.2 0-.403-.1-.604-.1l-.704 2.2zm10.674 20.485l-9.566-5.596a2.33 2.33 0 0 1-.705.7l5.64 9.493a12.72 12.72 0 0 0 4.632-4.597zM23.57 3.203l-.604 1.9c7.955 1.6 13.896 8.494 13.896 16.688 0 9.393-7.653 16.988-17.12 16.988S2.626 31.183 2.626 21.8c0-8.294 5.94-15.1 13.796-16.688l-.604-1.9C7.157 5.002.612 12.697.612 21.8c0 10.493 8.56 18.986 19.133 18.986S38.877 32.283 38.877 21.8c0-9.094-6.545-16.788-15.306-18.587zM27.8 9.2l-5.64 9.493a2.35 2.35 0 0 1 .705.7l9.566-5.596c-1.108-1.8-2.72-3.398-4.632-4.597zm7.05 12.6c0-1.1-.1-2.198-.403-3.298L23.773 21.3v1l10.775 2.798c.1-1 .302-2.1.302-3.298zM19.14 8.9c.2.6 1.007.6 1.108 0l2.215-7.295c.2-.4-.1-.8-.503-.8h-4.43c-.403 0-.705.4-.604.8L19.14 8.9z"/></svg>